# xmcd CD database file
#
# Track frame offsets:
#	150
#	18645
#	34582
#	45338
#	58397
#	73789
#	89141
#	108034
#	123614
#	137320
#	155972
#	169542
#	185502
#
# Disc length: 2638 seconds
#
# Revision: 0
# Processed by: cddbd v1.5.2PL0 Copyright (c) Steve Scherf et al.
# Submitted via: CDex 1.70beta2
#
DISCID=b50a4c0d
DTITLE=Tadg Galleran - Even White Boys Get The Blues
DYEAR=1900
DGENRE=Blues
TTITLE0=Even White Boys Get The Blues
TTITLE1=Cab Driver
TTITLE2=Gingerbread
TTITLE3=Cash, Check or Money Order
TTITLE4=Don't Kiss and Tell
TTITLE5=A Mask of Gray
TTITLE6=40 Days and 40 Nights
TTITLE7=Rhymes With Bad
TTITLE8=From a Buick
TTITLE9=Black Drawers
TTITLE10=Wrong Doin' Woman
TTITLE11=Stagger Lee
TTITLE12=Six Days On The Road
EXTD=
EXTT0=
EXTT1=
EXTT2=
EXTT3=
EXTT4=
EXTT5=
EXTT6=
EXTT7=
EXTT8=
EXTT9=
EXTT10=
EXTT11=
EXTT12=
PLAYORDER=
